<svg width="32" height="32" viewBox="0 0 32 32" fill="none" xmlns="http://www.w3.org/2000/svg">
<path d="M27.8402 1.58613L16.1717 13.2546L4.50299 1.58587C3.69803 0.780905 2.39097 0.780905 1.58574 1.58613C0.780778 2.3911 0.780777 3.69816 1.58574 4.50312L13.2545 16.1719L1.58574 27.8406C0.780777 28.6456 0.780778 29.9527 1.58574 30.7576C2.39097 31.5628 3.69803 31.5628 4.50299 30.7579L16.1717 19.0891L27.8402 30.7576C28.6455 31.5628 29.9525 31.5628 30.7575 30.7579C31.5627 29.9527 31.5627 28.6456 30.7575 27.8404L19.089 16.1719L30.7575 4.50339C31.5627 3.69816 31.5627 2.3911 30.7575 1.58587C29.9525 0.780906 28.6455 0.780905 27.8402 1.58613Z" fill="#515151"/>
</svg>
